<?xml version="1.0" encoding="utf-8"?>
<!-- Generator: Adobe Illustrator 21.1.0, SVG Export Plug-In . SVG Version: 6.00 Build 0)  -->
<svg version="1.1" id="Layer_1" xmlns="http://www.w3.org/2000/svg" xmlns:xlink="http://www.w3.org/1999/xlink" x="0px" y="0px"
	 viewBox="0 0 736.6 734.7" style="enable-background:new 0 0 736.6 734.7;" xml:space="preserve">
<style type="text/css">
	.st0{fill:#70CADB;}
	.st1{fill:#E01765;}
	.st2{fill:#E8A723;}
	.st3{fill:#3EB890;}
	.st4{fill:#CC2027;}
	.st5{fill:#361238;}
	.st6{fill:#65863A;}
	.st7{fill:#1A937D;}
</style>
<title>background</title>
<title>Layer 1</title>
<path class="st0" d="M62.9,388.9C35.3,389.1,12,372.7,3.4,347c-0.3-1-0.6-1.9-0.9-2.9c-9.4-32.8,8.8-67.2,41.4-78.2L567,90.7
	c6.2-1.8,12.6-2.7,19.1-2.8c28.3-0.2,52.3,16.6,61.1,42.8l0.8,2.5c9.8,34.2-14.5,64.7-43.7,74.5c0,0-5.3,1.8-520.2,177.6
	C77.3,387.6,70.1,388.8,62.9,388.9L62.9,388.9z"/>
<path class="st1" d="M150.1,646.2c-27.8,0.2-51.2-16-59.7-41.3c-0.3-1-0.6-1.9-0.9-2.9c-9.5-33.2,8.7-68,41.4-79L654,346.2
	c6.8-2.3,13.7-3.4,20.8-3.5c27.9-0.2,52.3,16.8,61,42.4l0.8,2.7c5.1,17.7,2.1,37.5-8,53.2c-7.5,11.7-31.1,21.9-31.1,21.9
	L172.3,642.4C165.2,644.8,157.7,646.1,150.1,646.2L150.1,646.2z"/>
<path class="st2" d="M585.6,647.3c-27.8,0.3-52.6-17.4-61.5-43.8L349.5,84.9l-0.9-2.9c-9.5-33.1,8.7-67.6,41.3-78.6
	c6.5-2.2,13.3-3.3,20.1-3.4c10.1-0.1,19.8,2.2,29,6.7c15.3,7.6,26.9,20.9,32.4,37.1L646,562.5l0.5,1.7c9.8,34.3-8.3,68.9-41,79.8
	C599.1,646.1,592.4,647.2,585.6,647.3L585.6,647.3z"/>
<path class="st3" d="M326.1,734.7c-27.8,0.3-52.7-17.4-61.5-43.8L90,172.3c-11.4-33.6,6.7-70,40.3-81.4h0.1c6.5-2.2,13.2-3.3,20-3.4
	c27.8-0.3,52.7,17.4,61.5,43.8l174.6,518.6c11.4,33.6-6.7,70-40.3,81.4c-0.1,0-0.1,0-0.2,0.1C339.6,733.5,332.8,734.6,326.1,734.7
	L326.1,734.7L326.1,734.7z"/>
<path class="st4" d="M499.5,530.5l121.7-41.6l-39.7-118.2l-121.9,41.2L499.5,530.5z"/>
<path class="st5" d="M240.4,619.1l121.7-41.6L322,458.4l-121.9,41.2L240.4,619.1z"/>
<path class="st6" d="M412.8,273.1l121.7-41.6l-39.2-116.8l-122,40.9L412.8,273.1z"/>
<path class="st7" d="M153.7,361.6L275.4,320l-39.8-118.3l-122,40.9L153.7,361.6z"/>
</svg>
